<?xml version="1.0" encoding="UTF-8"?>
<svg id="Layer_1" data-name="Layer 1" xmlns="http://www.w3.org/2000/svg" viewBox="0 0 1011.62 773.81">
  <defs>
    <style>
      .cls-1 {
        fill: #a1123f;
      }

      .cls-2 {
        fill: #df2165;
      }
    </style>
  </defs>
  <path class="cls-1" d="M106.13,722.04l-26.75-22.85C-15.72,617.94-26.96,474.99,54.28,379.89L378.8,0c39.45,46.04,78.91,92.07,118.36,138.11-19.26,22.69-38.52,45.39-57.78,68.08-20.52-23.3-41.04-46.6-61.56-69.9-84.5,99.17-168.99,198.34-253.49,297.5-6.69,8.5-42.09,55.19-31.66,116.55,7.33,43.1,33.22,69.6,46.65,82.96,13.67,13.6,61.49,61.18,125.88,51.23,41.04-6.34,67.68-32.78,78.3-44.78,97.54-112.85,195.09-225.69,292.63-338.54,20.52,23.92,41.04,47.84,61.56,71.77,45.7,53.13,91.41,106.25,137.11,159.38-2.91,9.12-9.48,25.47-24.23,41.03-12.68,13.38-26.11,20.56-34.49,24.25-45.27-52.56-90.54-105.13-135.81-157.69-7.92,9.36-20.15,23.81-35.12,41.37-112.39,131.83-174.37,192.41-195.23,216.83-77.3,90.48-213.31,101.18-303.8,23.88Z"/>
  <path class="cls-2" d="M177.51,531.66C329.42,354.47,481.33,177.27,633.23,.07c111.62,129.86,223.23,259.73,334.85,389.59,13.58,19.17,35.92,56.29,41.99,107.2,13.37,112.04-63.91,190.94-75.45,202.34-16.14,15.94-84.01,82.99-185.51,73.72-93.94-8.58-148.14-76.28-157.6-88.51-24.56-28.27-49.12-56.54-73.68-84.82,19.26-22.38,38.52-44.77,57.78-67.15,31.4,36.66,62.8,73.32,94.2,109.98,10.08,10.42,40.59,39.12,86.72,42.86,65.12,5.27,109.05-43.45,121.18-56.92,11.95-13.26,39.59-44.85,42.85-94.18,3.23-48.81-19.44-84.18-27.07-95.09-86.43-101.28-172.86-202.56-259.3-303.85-132.65,154.5-265.29,309.01-397.94,463.51-9.05-4.35-24.45-13.21-38.24-29.82-11.75-14.16-17.58-28.24-20.52-37.29Z"/>
</svg>