<?xml version="1.0" encoding="UTF-8"?>
<svg id="Layer_1" data-name="Layer 1" xmlns="http://www.w3.org/2000/svg" viewBox="0 0 1001 1001">
  <defs>
    <style>
      .cls-1 {
        fill: #fff;
      }

      .cls-2, .cls-3 {
        fill: #8bc6ef;
      }

      .cls-4 {
        fill: #4672ad;
      }

      .cls-3 {
        stroke: #fff;
        stroke-linecap: round;
        stroke-width: 2px;
      }

      .cls-3, .cls-5 {
        stroke-miterlimit: 10;
      }

      .cls-5 {
        fill: none;
        stroke: #000;
      }
    </style>
  </defs>
  <g>
    <g>
      <path class="cls-4" d="M291.02,707.1l-77.87,18.21c-10.75,2.51-21.6,3.75-32.36,3.75-31.4,0-62.03-10.53-87.29-30.56-33.9-26.89-53.34-67.12-53.34-110.39,0-24.04,19.48-43.52,43.52-43.52s43.52,19.48,43.52,43.52c0,16.54,7.43,31.92,20.39,42.2,12.96,10.28,29.63,14.02,45.73,10.25l80.13-18.74,17.55,85.29Z"/>
      <path class="cls-4" d="M434.85,584.07l365.14-85.39c38.93-9.1,79.23-.08,110.55,24.76,31.33,24.85,49.29,62.03,49.29,102.01,0,24.04-19.48,43.52-43.52,43.52s-43.52-19.49-43.52-43.52c0-13.26-5.96-25.58-16.34-33.81-10.38-8.24-23.74-11.22-36.64-8.21l-369.39,86.38-15.58-85.75Z"/>
    </g>
    <path class="cls-2" d="M625.4,164.28c-11.88,3.8-23.34,8.93-34.03,15.36-3.93,2.37-9.03,1.1-11.39-2.82-2.37-3.92-1.09-9.03,2.83-11.4,9.21-5.53,18.93-10.17,28.99-13.96-64.36-56.63-160.82-56.86-225.42-.67,10.7,3.9,21.06,8.75,30.83,14.63,3.93,2.36,5.19,7.46,2.83,11.39-2.36,3.93-7.47,5.19-11.39,2.83-11.28-6.78-23.41-12.1-35.99-15.95l-20.23,20.23,146.31,146.3,146.3-146.3-19.63-19.63Z"/>
    <path class="cls-2" d="M825.57,262.27c-23.22-63.53-83.69-105.76-151.32-105.7-29.21,.02-57.86,8-82.89,23.06l-91.36,55-91.36-55c-25.02-15.06-53.68-23.04-82.89-23.06-67.64-.06-128.1,42.17-151.32,105.7-11.52,31.51-16.89,64.92-15.83,98.45,5.22,164.86,63.17,323.7,165.32,453.19l4.68,5.93c8.67,10.99,21.9,17.4,35.9,17.4,20.15,0,37.93-13.2,43.77-32.49l.55-1.8c-3.14-10.07-6.52-20.06-10.35-29.89-9.7-24.9-21.62-48.95-35.55-71.75-6.97-11.4-14.48-22.48-22.44-33.21l-24.88-33.18-.03-.04c-2.75-3.67-2.01-8.87,1.66-11.62,3.67-2.75,8.87-2.01,11.62,1.66l.02,.03c16.52,22.23,33.91,43.91,48.21,67.69,14.45,23.65,26.8,48.57,36.87,74.4,1.11,2.85,2.09,5.74,3.14,8.61l.04-.15c.57,1.56,1.06,3.15,1.62,4.71,1.34,3.76,2.64,7.53,3.88,11.32,1,3.06,1.96,6.12,2.9,9.2,.58,1.89,1.23,3.76,1.78,5.65l1.6,5.9c.36,1.29,.78,2.56,1.13,3.85l5.1,19.11,2.91,10.71c.37,1.34,.94,2.58,1.39,3.88,.72,2.09,1.38,4.2,2.31,6.19,.49,1.05,1.15,1.99,1.69,3.01,1.1,2.07,2.17,4.15,3.49,6.09,.48,.7,1.08,1.3,1.58,1.98,1.55,2.1,3.12,4.18,4.92,6.07,.66,.69,1.43,1.25,2.11,1.91,1.81,1.75,3.63,3.5,5.64,5.01,.71,.54,1.51,.94,2.24,1.45,2.1,1.47,4.21,2.92,6.48,4.12,.88,.46,1.83,.77,2.72,1.19,2.25,1.06,4.51,2.14,6.86,2.93,.95,.32,1.97,.47,2.94,.75,2.36,.67,4.71,1.37,7.13,1.77,3.42,.56,6.91,.88,10.47,.88s7.05-.31,10.47-.88c2.33-.39,4.58-1.06,6.85-1.7,1.07-.3,2.18-.47,3.22-.82,2.3-.78,4.49-1.83,6.69-2.86,.95-.45,1.96-.78,2.9-1.27,2.17-1.15,4.2-2.56,6.22-3.96,.82-.56,1.71-1.02,2.5-1.62,1.93-1.46,3.67-3.15,5.42-4.82,.76-.72,1.6-1.34,2.32-2.1,1.77-1.86,3.31-3.91,4.84-5.97,.53-.71,1.16-1.34,1.65-2.07,1.32-1.94,2.39-4.03,3.5-6.1,.54-1.01,1.19-1.95,1.68-3,.93-2,1.59-4.1,2.31-6.18,.45-1.31,1.03-2.55,1.4-3.9l2.9-10.69,5.11-19.13c.34-1.29,.77-2.55,1.12-3.83l1.6-5.91c.55-1.89,1.2-3.75,1.77-5.63,.94-3.09,1.91-6.18,2.92-9.25,1.24-3.8,2.55-7.57,3.89-11.33,.56-1.55,1.04-3.13,1.6-4.67l.04,.15c1.05-2.87,2.03-5.77,3.14-8.61,10.06-25.82,22.41-50.75,36.86-74.4,14.3-23.78,31.69-45.45,48.2-67.69,2.74-3.68,7.93-4.45,11.61-1.71,3.68,2.73,4.44,7.93,1.71,11.61l-.02,.03-.03,.04-24.88,33.18c-7.96,10.73-15.47,21.8-22.44,33.21-13.93,22.81-25.85,46.85-35.55,71.76-3.83,9.83-7.21,19.82-10.35,29.89l.54,1.8c5.83,19.29,23.61,32.49,43.77,32.49,14,0,27.23-6.41,35.9-17.4l4.68-5.93c102.15-129.5,160.1-288.34,165.32-453.19,1.06-33.53-4.31-66.94-15.83-98.45Z"/>
    <path class="cls-3" d="M375.13,267.27l26.19-26.19c53.8-53.8,141.02-53.8,194.82,0l26.19,26.19"/>
    <g>
      <path class="cls-4" d="M534.49,481.99c-3.4,0-6.78-.59-10-1.78l-70.42-25.85-101,23.55c-15.6,3.66-31.21-6.06-34.84-21.67-3.64-15.6,6.06-31.21,21.67-34.84l109.45-25.52c5.51-1.29,11.28-.93,16.59,1.02l70.42,25.86,221.1-51.56c15.61-3.66,31.21,6.05,34.85,21.67,3.64,15.6-6.06,31.21-21.67,34.84l-229.55,53.53c-2.17,.51-4.38,.76-6.59,.76Z"/>
      <g>
        <path class="cls-1" d="M533.06,317.3h0c-12.33,2.87-19.99,15.2-17.12,27.53l18.29,78.42,44.64-10.41-18.29-78.42c-2.87-12.33-15.2-19.99-27.53-17.12Z"/>
        <path class="cls-1" d="M577.7,306.88h0c-12.33,2.87-19.99,15.2-17.12,27.53l18.29,78.42,44.64-10.41-18.29-78.42c-2.87-12.33-15.2-19.99-27.53-17.12Z"/>
        <path class="cls-1" d="M622.34,296.47h0c-12.33,2.88-19.99,15.2-17.12,27.53l18.29,78.42,44.64-10.41-18.29-78.42c-2.88-12.33-15.2-19.99-27.53-17.12Z"/>
        <path class="cls-1" d="M666.99,286.06h0c-12.33,2.87-19.99,15.2-17.12,27.53l18.29,78.42,44.64-10.41-18.29-78.42c-2.87-12.33-15.2-19.99-27.53-17.12Z"/>
        <path class="cls-1" d="M711.63,275.65h0c-12.33,2.87-19.99,15.2-17.12,27.53l18.29,78.42,44.64-10.41-18.29-78.42c-2.87-12.33-15.2-19.99-27.53-17.12Z"/>
      </g>
    </g>
    <path class="cls-4" d="M588.28,814.41c-19.76,0-37.65-13.55-42.34-33.62-5.47-23.41,9.07-46.82,32.47-52.29l261.06-61.02c19.62-4.59,33.33-21.87,33.33-42.02,0-24.04,19.48-43.52,43.52-43.52s43.52,19.48,43.52,43.52c0,60.81-41.35,112.94-100.57,126.78l-261.06,61.02c-3.33,.78-6.66,1.15-9.94,1.15Z"/>
    <path class="cls-4" d="M339.74,420.83c-1.78-7.62-9.4-12.34-17.01-10.56l-173.75,40.63c-62.36,14.59-106.41,68.42-108.72,131.94-.97,26.76,18.78,50,45.53,48.73,22.98-1.09,41.29-20,41.42-43.22,.14-24.66,15.43-46.58,39.44-52.19l175.91-41.14c7.62-1.78,12.35-9.4,10.56-17.01l-13.37-57.18Z"/>
  </g>
</svg>
